Coordinates
version=1
nRows=13
nColumns=36
inDegrees=yes

Units are S.I. units (second, meters, Newtons, ...)
If the header above contains a line with 'inDegrees', this indicates whether rotational values are in degrees (yes) or radians (no).

endheader
time	pelvis_tilt	pelvis_list	pelvis_rotation	pelvis_tx	pelvis_ty	pelvis_tz	hip_flexion_r	hip_adduction_r	hip_rotation_r	knee_angle_r	knee_angle_r_beta	ankle_angle_r	subtalar_angle_r	mtp_angle_r	hip_flexion_l	hip_adduction_l	hip_rotation_l	knee_angle_l	knee_angle_l_beta	ankle_angle_l	subtalar_angle_l	mtp_angle_l	lumbar_extension	lumbar_bending	lumbar_rotation	arm_flex_r	arm_add_r	arm_rot_r	elbow_flex_r	pro_sup_r	arm_flex_l	arm_add_l	arm_rot_l	elbow_flex_l	pro_sup_l
      3.71250000	      7.60419053	      2.52526734	     14.21983678	      0.06676011	      0.88050762	     -0.05392483	     36.88497827	    -10.16755396	      1.60026346	     55.52883296	      0.96916096	     15.35479162	    -23.45329430	     -7.49999987	     41.98334161	     -6.29853432	     -1.03938744	     50.19726726	      0.87610759	     11.49321745	    -10.28255156	     -7.49999987	    -27.73127783	     -8.53626498	      2.89029357	    408.04851244	    -61.99725623	    348.26783859	     86.91262427	     81.90766299	     39.25680999	    -26.54274238	      8.20471897	    117.00229987	     66.98388509
      3.71666670	      7.53558595	      2.60709723	     14.47920307	      0.06374108	      0.88491096	     -0.05459989	     36.41826661	    -10.37005939	      1.44554963	     54.44270350	      0.95020443	     15.00333161	    -23.37129658	     -7.49999987	     41.61422616	     -6.29215591	     -1.57713640	     49.12358121	      0.85736823	     11.43332240	     -9.71336814	     -7.49999987	    -27.55798533	     -8.63347583	      2.58209343	    407.16751811	    -62.62771272	    348.13616186	     86.06032018	     81.94229408	     38.45957949	    -26.70347960	      7.71749686	    117.15081116	     66.98384998
      3.72083330	      7.83181761	      2.71814627	     14.66403031	      0.05996717	      0.88900223	     -0.05291857	     35.59593655	    -10.43260403	      1.26915081	     53.39912422	      0.93199054	     14.57556965	    -23.82939849	     -7.49999987	     40.78542422	     -6.56775082	     -2.33884935	     47.86422041	      0.83538824	     11.70186132	     -8.94362641	     -7.49999987	    -27.77140304	     -8.75453420	      2.44660414	    405.97055459	    -63.29318038	    347.28714638	     85.11308166	     81.95436310	     37.86713035	    -26.49868516	      6.45035102	    117.73250462	     66.98068950
      3.72500000	      7.77293521	      2.80558624	     14.95241276	      0.05650153	      0.88900445	     -0.05251980	     35.31101218	    -10.61213723	      1.11419640	     52.56619870	      0.91745324	     14.18405872	    -24.83960838	     -7.49999987	     40.58001055	     -6.79089290	     -3.17976149	     47.11771116	      0.82235920	     11.75184339	     -9.57228846	     -7.49999987	    -27.55275336	     -8.94656385	      2.76311078	    402.88700200	    -64.45332277	    344.46388647	     84.94463795	     81.34535913	     37.80945608	    -26.28887797	      6.57143012	    117.61109823	     66.84729389
      3.72916670	      7.78101478	      2.85762889	     15.21272961	      0.05097244	      0.89405356	     -0.05358744	     34.80071016	    -10.74425285	      0.97925405	     51.36676863	      0.89651924	     13.89812988	    -24.99190426	     -7.49999987	     40.28402942	     -6.91547933	     -3.87708766	     46.11958150	      0.80493855	     11.93878786	     -9.94272688	     -7.49999987	    -27.44772904	     -8.91129320	      2.59040237	    401.86604662	    -65.12599608	    343.99937748	     83.92414165	     81.34300364	     37.06655768	    -26.19597405	      5.82617328	    117.76591011	     66.81446031
      3.73333330	      7.59908017	      2.90154078	     15.56814535	      0.05029287	      0.89457627	     -0.05212095	     34.57203571	    -10.82079270	      0.87462302	     50.44099282	      0.88036140	     13.66429951	    -25.49869935	     -7.49999987	     40.17128567	     -7.29228227	     -5.01505585	     45.19408747	      0.78878563	     12.05096533	    -10.85942814	     -7.49999987	    -27.16406645	     -9.19864643	      3.22067977	    396.68211948	    -66.41061040	    339.40458484	     83.37178504	     79.94213247	     37.34483165	    -25.61770344	      6.19131248	    117.42061688	     66.34233853
      3.73750000	      7.42859468	      2.91345027	     16.02466443	      0.04631017	      0.89479172	     -0.05107452	     34.40478265	    -10.96080282	      0.57003333	     49.61793233	      0.86599629	     13.66682551	    -25.83740607	     -7.49999987	     40.32497299	     -7.62240521	     -6.11893337	     44.65632026	      0.77939982	     11.77359908	    -12.58387324	     -7.49999987	    -27.01592741	     -9.45421972	      4.31534226	    388.77955348	    -67.98196697	    331.84306029	     83.36100445	     79.72162537	     38.21485343	    -24.58871584	      7.19240520	    116.69359412	     66.08248616
      3.74166670	      7.32518764	      2.91734654	     16.43887951	      0.04298728	      0.90110234	     -0.05127077	     33.90908615	    -11.08828558	      0.27031385	     48.42614863	      0.84519574	     13.51480231	    -25.90289841	     -7.49999987	     40.03028642	     -8.01879237	     -7.61430026	     43.66045363	      0.76201867	     11.34425947	    -13.82537183	     -7.49999987	    -26.61783587	     -9.47046587	      3.89144694	    387.81739635	    -67.89289256	    331.66093156	     81.87817068	     79.63897961	     37.05937832	    -24.60034711	      6.16021047	    116.79799210	     66.00165493
      3.74583330	      7.07753126	      2.79259446	     16.83500556	      0.04044595	      0.90350458	     -0.05190300	     33.58003291	    -11.24250717	     -0.13470624	     47.39128539	      0.82713397	     13.16347254	    -26.55644849	     -7.49999987	     39.78755886	     -8.29829850	     -8.72605421	     42.71196905	      0.74546449	     11.01156734	    -15.22756660	     -7.49999987	    -26.28235230	     -9.36411253	      3.60509900	    386.16009535	    -68.04018586	    330.44488929	     81.03297693	     79.20082261	     35.74461258	    -24.39436857	      4.79351139	    117.31969273	     65.78741724
      3.75000000	      6.82438778	      2.69845636	     17.13596963	      0.03408815	      0.90443852	     -0.04970252	     33.53696474	    -11.24740632	     -0.40526294	     46.37126878	      0.80933132	     13.06045426	    -26.55715919	     -7.49999987	     39.65170270	     -8.68096291	    -10.09371092	     41.84478344	      0.73032925	     11.06963977	    -15.85613959	     -7.49999987	    -26.01114106	     -9.48635558	      3.37823169	    385.12592858	    -68.23508336	    329.97381049	     79.38925511	     79.01884510	     35.12373128	    -24.25960020	      3.96754856	    117.61550338	     65.66896537
      3.75416670	      6.47240012	      2.59676626	     17.51430719	      0.03297711	      0.90524047	     -0.05209625	     33.40927050	    -11.35230187	     -0.62676538	     45.36014358	      0.79168385	     12.79567000	    -26.91172899	     -7.49999987	     39.70777065	     -8.96004381	    -11.25369731	     41.21979701	      0.71942117	     10.87116368	    -16.73300645	     -7.49999987	    -25.51544298	     -9.65556874	      3.85953592	    379.36362174	    -68.56506163	    324.92750383	     78.41358027	     77.94281187	     35.01418201	    -23.52114415	      4.11968934	    117.24301489	     65.31250772
      3.75833330	      6.23889698	      2.57625837	     17.73193665	      0.02904321	      0.90899029	     -0.05232092	     33.13630472	    -11.36707142	     -0.76452696	     44.23192637	      0.77199275	     12.71385439	    -26.54293478	     -7.49999987	     39.52948155	     -9.38147530	    -12.64964346	     40.58611857	      0.70836140	     10.46901938	    -17.11861636	     -7.49999987	    -25.11420648	     -9.76929433	      3.43553696	    378.47199391	    -68.28996459	    324.66687936	     76.76507170	     77.81607966	     34.07274597	    -23.64206755	      3.55473073	    117.48507877	     65.22983752
      3.76250000	      5.94850348	      2.67361342	     17.89648047	      0.02476173	      0.91040044	     -0.05306395	     33.14757509	    -11.63186753	     -0.87506373	     43.54262450	      0.75996216	     12.75911064	    -26.27016064	     -7.49999987	     39.42119651	     -9.62625112	    -13.86543878	     40.14701937	      0.70069767	      9.64315737	    -18.42558306	     -7.49999987	    -24.93881838	    -10.25307574	      4.98838390	    367.27274977	    -68.77930133	    314.65043345	     76.27602029	     72.53669942	     35.11936130	    -21.94508899	      4.94127376	    116.54513011	     62.79775614
